<svg width="28" height="31" viewBox="0 0 28 31" fill="none" xmlns="http://www.w3.org/2000/svg">
<g filter="url(#filter0_d_2_1902)">
<path d="M5 6.47246C5 4.55467 6.55467 3 8.47246 3H19.5842C21.4707 3 23 4.52929 23 6.41577C23 7.42052 22.5576 8.37431 21.7906 9.02332L18.2703 12.0021C17.1475 12.9521 16.5 14.3482 16.5 15.819V17.5996C16.5 18.4795 16.079 19.3062 15.3675 19.8237L13.4262 21.2355C12.4165 21.9698 11 21.2485 11 20V15.6995C11 14.298 10.4118 12.9608 9.37862 12.0137L6.12603 9.0322C5.40852 8.37448 5 7.44581 5 6.47246Z" stroke="#FAFAFA" stroke-width="1.5"/>
</g>
<defs>
<filter id="filter0_d_2_1902" x="-2" y="0" width="32" height="32" filterUnits="userSpaceOnUse" color-interpolation-filters="sRGB">
<feFlood flood-opacity="0" result="BackgroundImageFix"/>
<feColorMatrix in="SourceAlpha" type="matrix" values="0 0 0 0 0 0 0 0 0 0 0 0 0 0 0 0 0 0 127 0" result="hardAlpha"/>
<feOffset dy="4"/>
<feGaussianBlur stdDeviation="2"/>
<feComposite in2="hardAlpha" operator="out"/>
<feColorMatrix type="matrix" values="0 0 0 0 0 0 0 0 0 0 0 0 0 0 0 0 0 0 0.25 0"/>
<feBlend mode="normal" in2="BackgroundImageFix" result="effect1_dropShadow_2_1902"/>
<feBlend mode="normal" in="SourceGraphic" in2="effect1_dropShadow_2_1902" result="shape"/>
</filter>
</defs>
</svg>
